<svg viewBox="0 0 64 64" xmlns="http://www.w3.org/2000/svg" id="Spaghetti--Streamline-Emoji" height="64" width="64">
  <desc>
    Spaghetti Streamline Emoji: https://streamlinehq.com
  </desc>
  <path d="M61.10666666666666 9.106666666666666h-5.68a12.333333333333332 12.333333333333332 0 0 0 -2.88 0.3466666666666667 11.76 11.76 0 0 1 -2.88 0.36h-12.84a2.373333333333333 2.373333333333333 0 0 1 -1.9866666666666666 -1.0666666666666667 2.373333333333333 2.373333333333333 0 0 0 -1.9866666666666666 -1.0666666666666667h-9.333333333333332v7.1066666666666665h9.333333333333332a2.373333333333333 2.373333333333333 0 0 0 1.9866666666666666 -1.0666666666666667 2.373333333333333 2.373333333333333 0 0 1 1.9866666666666666 -1.0666666666666667h12.84a11.76 11.76 0 0 1 2.88 0.36 12.333333333333332 12.333333333333332 0 0 0 2.88 0.3466666666666667h5.68a2.1333333333333333 2.1333333333333333 0 1 0 0 -4.253333333333333Z" fill="#e8f4fa" stroke-width="1"></path>
  <path d="M34.839999999999996 10.666666666666666a2.6666666666666665 2.6666666666666665 0 0 0 1.9866666666666666 0.7999999999999999h12.84a16.08 16.08 0 0 0 2.88 -0.26666666666666666 15.853333333333333 15.853333333333333 0 0 1 2.88 -0.26666666666666666h5.68a2.16 2.16 0 0 1 2 1.0666666666666667 2.16 2.16 0 0 0 0.13333333333333333 -0.72 2.1333333333333333 2.1333333333333333 0 0 0 -2.1333333333333333 -2.12h-5.68a12.253333333333332 12.253333333333332 0 0 0 -2.88 0.3466666666666667 11.76 11.76 0 0 1 -2.88 0.36h-12.84a2.373333333333333 2.373333333333333 0 0 1 -1.9866666666666666 -1.0666666666666667 2.373333333333333 2.373333333333333 0 0 0 -1.9866666666666666 -1.0666666666666667h-9.333333333333332v2.1333333333333333h9.333333333333332a2.6666666666666665 2.6666666666666665 0 0 1 1.9866666666666666 0.7999999999999999Z" fill="#ffffff" stroke-width="1"></path>
  <path d="M61.10666666666666 9.106666666666666h-5.68a12.333333333333332 12.333333333333332 0 0 0 -2.88 0.3466666666666667 11.76 11.76 0 0 1 -2.88 0.36h-12.84a2.373333333333333 2.373333333333333 0 0 1 -1.9866666666666666 -1.0666666666666667 2.373333333333333 2.373333333333333 0 0 0 -1.9866666666666666 -1.0666666666666667h-9.333333333333332v7.1066666666666665h9.333333333333332a2.373333333333333 2.373333333333333 0 0 0 1.9866666666666666 -1.0666666666666667 2.373333333333333 2.373333333333333 0 0 1 1.9866666666666666 -1.0666666666666667h12.84a11.76 11.76 0 0 1 2.88 0.36 12.333333333333332 12.333333333333332 0 0 0 2.88 0.3466666666666667h5.68a2.1333333333333333 2.1333333333333333 0 1 0 0 -4.253333333333333Z" fill="none" stroke="#45413c" stroke-linecap="round" stroke-linejoin="round" stroke-width="1"></path>
  <path d="M24.186666666666667 13.333333333333332a1.4266666666666667 1.4266666666666667 0 0 0 -1.4133333333333333 1.4266666666666667v6.386666666666667a1.4266666666666667 1.4266666666666667 0 0 0 2.84 0v-6.359999999999999A1.4266666666666667 1.4266666666666667 0 0 0 24.186666666666667 13.333333333333332Z" fill="#ffe500" stroke-width="1"></path>
  <path d="M24.186666666666667 13.333333333333332a1.4266666666666667 1.4266666666666667 0 0 0 -1.4133333333333333 1.4266666666666667v4.586666666666666h2.84v-4.56A1.4266666666666667 1.4266666666666667 0 0 0 24.186666666666667 13.333333333333332Z" fill="#ebcb00" stroke-width="1"></path>
  <path d="M25.613333333333333 13.36h2.84v17.746666666666666h-2.84z" fill="#ffe500" stroke-width="1"></path>
  <path d="M25.613333333333333 13.36h2.84v5.72h-2.84z" fill="#ebcb00" stroke-width="1"></path>
  <path d="M24.186666666666667 13.333333333333332a1.4266666666666667 1.4266666666666667 0 0 0 -1.4133333333333333 1.4266666666666667v6.386666666666667a1.4266666666666667 1.4266666666666667 0 0 0 2.84 0v-6.359999999999999A1.4266666666666667 1.4266666666666667 0 0 0 24.186666666666667 13.333333333333332Z" fill="none" stroke="#45413c" stroke-linecap="round" stroke-linejoin="round" stroke-width="1"></path>
  <path d="M25.613333333333333 13.36h2.84v17.746666666666666h-2.84z" fill="none" stroke="#45413c" stroke-linecap="round" stroke-linejoin="round" stroke-width="1"></path>
  <path d="M15.666666666666666 60.53333333333333a16.333333333333332 2.1333333333333333 0 1 0 32.666666666666664 0 16.333333333333332 2.1333333333333333 0 1 0 -32.666666666666664 0Z" fill="#45413c" opacity=".15" stroke-width="1"></path>
  <path d="M59.67999999999999 42.12c0 8 -12.386666666666665 14.546666666666667 -27.68 14.546666666666667S4.32 50.14666666666666 4.32 42.12 16.706666666666663 28.266666666666666 32 28.266666666666666s27.68 5.8133333333333335 27.68 13.853333333333333Z" fill="#f0f0f0" stroke-width="1"></path>
  <path d="M32 32.74666666666666c13.826666666666664 0 25.253333333333334 4.76 27.319999999999997 11.613333333333333a7.573333333333332 7.573333333333332 0 0 0 0.36 -2.2399999999999998c0 -8 -12.386666666666665 -13.853333333333333 -27.68 -13.853333333333333S4.32 34.08 4.32 42.12a7.573333333333332 7.573333333333332 0 0 0 0.36 2.2399999999999998c2.0666666666666664 -6.853333333333333 13.493333333333332 -11.613333333333333 27.319999999999997 -11.613333333333333Z" fill="#ffffff" stroke-width="1"></path>
  <path d="M59.67999999999999 42.12c0 8 -12.386666666666665 14.546666666666667 -27.68 14.546666666666667S4.32 50.14666666666666 4.32 42.12 16.706666666666663 28.266666666666666 32 28.266666666666666s27.68 5.8133333333333335 27.68 13.853333333333333Z" fill="none" stroke="#45413c" stroke-linecap="round" stroke-linejoin="round" stroke-width="1"></path>
  <path d="M51.17333333333333 39.06666666666666c0 5.799999999999999 -8.586666666666666 10.506666666666666 -19.173333333333332 10.506666666666666S12.826666666666664 44.86666666666666 12.826666666666664 39.06666666666666s8.586666666666666 -12.919999999999998 19.173333333333332 -12.919999999999998S51.17333333333333 33.33333333333333 51.17333333333333 39.06666666666666Z" fill="#ffe500" stroke-width="1"></path>
  <path d="M32 29.72c9.493333333333332 0 17.333333333333332 5.7333333333333325 18.88 11.093333333333334a6 6 0 0 0 0.29333333333333333 -1.7466666666666666c0 -5.799999999999999 -8.586666666666666 -12.919999999999998 -19.173333333333332 -12.919999999999998S12.826666666666664 33.33333333333333 12.826666666666664 39.06666666666666a6 6 0 0 0 0.29333333333333333 1.7466666666666666C14.666666666666666 35.45333333333333 22.506666666666664 29.72 32 29.72Z" fill="#fff48c" stroke-width="1"></path>
  <path d="M51.17333333333333 39.06666666666666c0 5.799999999999999 -8.586666666666666 10.506666666666666 -19.173333333333332 10.506666666666666S12.826666666666664 44.86666666666666 12.826666666666664 39.06666666666666s8.586666666666666 -12.919999999999998 19.173333333333332 -12.919999999999998S51.17333333333333 33.33333333333333 51.17333333333333 39.06666666666666Z" fill="none" stroke="#45413c" stroke-linecap="round" stroke-linejoin="round" stroke-width="1"></path>
  <path d="m15.08 44 -0.12 -0.8266666666666667A10.173333333333332 10.173333333333332 0 0 1 20 33.239999999999995" fill="#ffe500" stroke="#45413c" stroke-linecap="round" stroke-linejoin="round" stroke-width="1"></path>
  <path d="m17.826666666666664 46.13333333333333 0 -0.12s-1.5333333333333332 -7.386666666666667 4.266666666666667 -10.666666666666666c0 0 -2.6666666666666665 8 3.24 10.093333333333334" fill="none" stroke="#45413c" stroke-linecap="round" stroke-linejoin="round" stroke-width="1"></path>
  <path d="M20.64 47.44s4.493333333333333 0.4666666666666666 6.386666666666667 -4.973333333333333a11.506666666666668 11.506666666666668 0 0 0 -1.4133333333333333 -9.933333333333334" fill="none" stroke="#45413c" stroke-linecap="round" stroke-linejoin="round" stroke-width="1"></path>
  <path d="M25.613333333333333 48.85333333333333A8.986666666666666 8.986666666666666 0 0 0 32 42.46666666666667a18.306666666666665 18.306666666666665 0 0 0 -0.7066666666666667 -11.36" fill="none" stroke="#45413c" stroke-linecap="round" stroke-linejoin="round" stroke-width="1"></path>
  <path d="M32.70666666666666 38.92a11.799999999999999 11.799999999999999 0 0 0 8.28 3.5599999999999996" fill="none" stroke="#45413c" stroke-linecap="round" stroke-linejoin="round" stroke-width="1"></path>
  <path d="M48.33333333333333 44.6a9.146666666666667 9.146666666666667 0 0 0 0 -6.386666666666667 7.453333333333333 7.453333333333333 0 0 0 -4.973333333333333 -4.266666666666667c2.6666666666666665 4.1466666666666665 1.9466666666666665 14.2 -4.973333333333333 14.906666666666666S32 43.17333333333333 32 43.17333333333333c2.786666666666666 3.9066666666666667 8 3.1466666666666665 9.226666666666667 -1.4133333333333333A7.293333333333333 7.293333333333333 0 0 0 39.81333333333333 34.666666666666664" fill="none" stroke="#45413c" stroke-linecap="round" stroke-linejoin="round" stroke-width="1"></path>
  <path d="M32.70666666666666 24.72c-10.76 0 -14.493333333333332 4.613333333333333 -14.906666666666666 7.8133333333333335s2.5466666666666664 4.96 5.68 4.253333333333333 3.6666666666666665 4.68 10.666666666666666 4.266666666666667 5.4399999999999995 -4.199999999999999 9.933333333333334 -5.68c2.8266666666666667 -0.9333333333333332 5.333333333333333 -3.5599999999999996 1.4266666666666667 -6.386666666666667a18.786666666666665 18.786666666666665 0 0 0 -12.799999999999999 -4.266666666666667Z" fill="#ff6242" stroke-width="1"></path>
  <path d="M32.70666666666666 27.599999999999998a18.786666666666665 18.786666666666665 0 0 1 12.786666666666665 4.266666666666667 6.186666666666666 6.186666666666666 0 0 1 1.5066666666666664 1.4666666666666668c0.8266666666666667 -1.2133333333333334 0.7066666666666667 -2.7733333333333334 -1.5066666666666664 -4.3999999999999995a18.786666666666665 18.786666666666665 0 0 0 -12.786666666666665 -4.266666666666667c-10.76 0 -14.493333333333332 4.613333333333333 -14.906666666666666 7.8133333333333335a4 4 0 0 0 0.22666666666666668 1.9333333333333331c0.9733333333333333 -3.0266666666666664 4.946666666666666 -6.8133333333333335 14.68 -6.8133333333333335Z" fill="#ff866e" stroke-width="1"></path>
  <path d="M32.70666666666666 24.72c-10.76 0 -14.493333333333332 4.613333333333333 -14.906666666666666 7.8133333333333335s2.5466666666666664 4.96 5.68 4.253333333333333 3.6666666666666665 4.68 10.666666666666666 4.266666666666667 5.4399999999999995 -4.199999999999999 9.933333333333334 -5.68c2.8266666666666667 -0.9333333333333332 5.333333333333333 -3.5599999999999996 1.4266666666666667 -6.386666666666667a18.786666666666665 18.786666666666665 0 0 0 -12.799999999999999 -4.266666666666667Z" fill="none" stroke="#45413c" stroke-linecap="round" stroke-linejoin="round" stroke-width="1"></path>
  <path d="M23.479999999999997 16.2a1.4133333333333333 1.4133333333333333 0 0 1 -1.4133333333333333 -1.4133333333333333v-6.3999999999999995a1.4133333333333333 1.4133333333333333 0 0 1 1.4133333333333333 -1.4133333333333333 1.4266666666666667 1.4266666666666667 0 0 1 1.4266666666666667 1.4133333333333333v6.3999999999999995a1.4266666666666667 1.4266666666666667 0 0 1 -1.4266666666666667 1.4133333333333333Z" fill="#ffe500" stroke-width="1"></path>
  <path d="M26.319999999999997 16.2a1.4133333333333333 1.4133333333333333 0 0 1 -1.4133333333333333 -1.4133333333333333v-6.3999999999999995a1.4133333333333333 1.4133333333333333 0 0 1 1.4133333333333333 -1.4133333333333333 1.4266666666666667 1.4266666666666667 0 0 1 1.4266666666666667 1.4133333333333333v6.3999999999999995a1.4266666666666667 1.4266666666666667 0 0 1 -1.4266666666666667 1.4133333333333333Z" fill="#ffe500" stroke-width="1"></path>
  <path d="M29.16 16.2a1.4133333333333333 1.4133333333333333 0 0 1 -1.4133333333333333 -1.4133333333333333V7.68a1.4 1.4 0 0 1 1.4133333333333333 -1.4133333333333333 1.4133333333333333 1.4133333333333333 0 0 1 1.4266666666666667 1.4133333333333333v7.1066666666666665a1.4266666666666667 1.4266666666666667 0 0 1 -1.4266666666666667 1.4133333333333333Z" fill="#ffe500" stroke-width="1"></path>
  <path d="M23.479999999999997 6.973333333333334a1.4133333333333333 1.4133333333333333 0 0 0 -1.4133333333333333 1.4133333333333333v2.76a1.4266666666666667 1.4266666666666667 0 1 1 2.84 0V8.386666666666667a1.4266666666666667 1.4266666666666667 0 0 0 -1.4266666666666667 -1.4133333333333333Z" fill="#fff48c" stroke-width="1"></path>
  <path d="M26.319999999999997 6.973333333333334a1.4133333333333333 1.4133333333333333 0 0 0 -1.4133333333333333 1.4133333333333333v2.76a1.4266666666666667 1.4266666666666667 0 1 1 2.84 0V8.386666666666667a1.4266666666666667 1.4266666666666667 0 0 0 -1.4266666666666667 -1.4133333333333333Z" fill="#fff48c" stroke-width="1"></path>
  <path d="M29.16 6.266666666666667a1.4 1.4 0 0 0 -1.4133333333333333 1.4133333333333333v2.76a1.4266666666666667 1.4266666666666667 0 1 1 2.84 0V7.68a1.4133333333333333 1.4133333333333333 0 0 0 -1.4266666666666667 -1.4133333333333333Z" fill="#fff48c" stroke-width="1"></path>
  <path d="M23.479999999999997 16.2h0a1.4133333333333333 1.4133333333333333 0 0 1 -1.4133333333333333 -1.4133333333333333v-6.3999999999999995a1.4133333333333333 1.4133333333333333 0 0 1 1.4133333333333333 -1.4133333333333333h0a1.4266666666666667 1.4266666666666667 0 0 1 1.4266666666666667 1.4133333333333333v6.3999999999999995a1.4266666666666667 1.4266666666666667 0 0 1 -1.4266666666666667 1.4133333333333333Z" fill="none" stroke="#45413c" stroke-linecap="round" stroke-linejoin="round" stroke-width="1"></path>
  <path d="M26.319999999999997 16.2h0a1.4133333333333333 1.4133333333333333 0 0 1 -1.4133333333333333 -1.4133333333333333v-6.3999999999999995a1.4133333333333333 1.4133333333333333 0 0 1 1.4133333333333333 -1.4133333333333333h0a1.4266666666666667 1.4266666666666667 0 0 1 1.4266666666666667 1.4133333333333333v6.3999999999999995a1.4266666666666667 1.4266666666666667 0 0 1 -1.4266666666666667 1.4133333333333333Z" fill="none" stroke="#45413c" stroke-linecap="round" stroke-linejoin="round" stroke-width="1"></path>
  <path d="M29.16 16.2h0a1.4133333333333333 1.4133333333333333 0 0 1 -1.4133333333333333 -1.4133333333333333V7.68a1.4 1.4 0 0 1 1.4133333333333333 -1.4133333333333333h0a1.4133333333333333 1.4133333333333333 0 0 1 1.4266666666666667 1.4133333333333333v7.1066666666666665a1.4266666666666667 1.4266666666666667 0 0 1 -1.4266666666666667 1.4133333333333333Z" fill="none" stroke="#45413c" stroke-linecap="round" stroke-linejoin="round" stroke-width="1"></path>
  <path d="M20.64 7.52a1.4133333333333333 1.4133333333333333 0 0 0 -1.4133333333333333 1.4266666666666667v5.333333333333333a1.4266666666666667 1.4266666666666667 0 0 0 2.84 0v-5.333333333333333a1.4266666666666667 1.4266666666666667 0 0 0 -1.4266666666666667 -1.4266666666666667Z" fill="#ffe500" stroke-width="1"></path>
  <path d="M20.64 7.52a1.4133333333333333 1.4133333333333333 0 0 0 -1.4133333333333333 1.4266666666666667v2.413333333333333a1.4266666666666667 1.4266666666666667 0 1 1 2.84 0V8.946666666666665a1.4266666666666667 1.4266666666666667 0 0 0 -1.4266666666666667 -1.4266666666666667Z" fill="#fff48c" stroke-width="1"></path>
  <path d="M20.64 7.52a1.4133333333333333 1.4133333333333333 0 0 0 -1.4133333333333333 1.4266666666666667v5.333333333333333a1.4266666666666667 1.4266666666666667 0 0 0 2.84 0v-5.333333333333333a1.4266666666666667 1.4266666666666667 0 0 0 -1.4266666666666667 -1.4266666666666667Z" fill="none" stroke="#45413c" stroke-linecap="round" stroke-linejoin="round" stroke-width="1"></path>
  <path d="m25.236184153866663 28.650949094266664 4.193893547466667 0.7085911076 -0.5908628045333333 3.4971024563999995 -4.193893547333333 -0.7085911076Z" fill="#bf8256" stroke-width="1"></path>
  <path d="m24.946666666666665 32 0.15999999999999998 -0.9333333333333332a0.7066666666666667 0.7066666666666667 0 0 1 0.8133333333333332 -0.5733333333333333l2.8 0.4666666666666666a0.6533333333333333 0.6533333333333333 0 0 1 0.3866666666666666 0.21333333333333332l0.19999999999999998 -1.16a0.72 0.72 0 0 0 -0.5866666666666667 -0.8266666666666667l-2.8 -0.4666666666666666a0.7066666666666667 0.7066666666666667 0 0 0 -0.8133333333333332 0.5733333333333333l-0.36 2.1066666666666665a0.7599999999999999 0.7599999999999999 0 0 0 0.19999999999999998 0.6Z" fill="#dea47a" stroke-width="1"></path>
  <path d="m25.236184153866663 28.650949094266664 4.193893547466667 0.7085911076 -0.5908628045333333 3.4971024563999995 -4.193893547333333 -0.7085911076Z" fill="none" stroke="#45413c" stroke-linecap="round" stroke-linejoin="round" stroke-width="1"></path>
  <path d="m33.9104849144 33.03019734466666 3.9120161254666663 -1.6694233369333331 1.3920583311999999 3.2620573334666667 -3.9120161254666663 1.6694233370666665Z" fill="#bf8256" stroke-width="1"></path>
  <path d="m34.666666666666664 34.839999999999996 2.493333333333333 -1.0666666666666667a0.7066666666666667 0.7066666666666667 0 0 1 0.9333333333333332 0.37333333333333335l0.3466666666666667 0.8133333333333332 0.10666666666666666 0a0.72 0.72 0 0 0 0.3866666666666666 -0.9333333333333332L38.10666666666666 32a0.72 0.72 0 0 0 -0.9333333333333332 -0.37333333333333335l-2.6666666666666665 1.1199999999999999a0.7066666666666667 0.7066666666666667 0 0 0 -0.37333333333333335 0.9333333333333332Z" fill="#dea47a" stroke-width="1"></path>
  <path d="m33.9104849144 33.03019734466666 3.9120161254666663 -1.6694233369333331 1.3920583311999999 3.2620573334666667 -3.9120161254666663 1.6694233370666665Z" fill="none" stroke="#45413c" stroke-linecap="round" stroke-linejoin="round" stroke-width="1"></path>
  <path d="m35.961142388 23.021640194 2.5674205407999997 3.391046477333333 -2.8276437710666666 2.1408585073333333 -2.5674205407999997 -3.391046477333333Z" fill="#bf8256" stroke-width="1"></path>
  <path d="m34.16 26.506666666666664 1.24 -0.9333333333333332a0.72 0.72 0 0 1 1 0.13333333333333333l1.1066666666666665 1.48 0.4666666666666666 -0.3466666666666667a0.72 0.72 0 0 0 0.13333333333333333 -1l-1.7066666666666666 -2.253333333333333a0.72 0.72 0 0 0 -1 -0.14666666666666667l-1.6933333333333334 1.3333333333333333a0.7066666666666667 0.7066666666666667 0 0 0 -0.14666666666666667 0.9866666666666666Z" fill="#dea47a" stroke-width="1"></path>
  <path d="m35.961142388 23.021640194 2.5674205407999997 3.391046477333333 -2.8276437710666666 2.1408585073333333 -2.5674205407999997 -3.391046477333333Z" fill="none" stroke="#45413c" stroke-linecap="round" stroke-linejoin="round" stroke-width="1"></path>
</svg>